<svg width="64" height="64" viewBox="0 0 64 64" fill="none" xmlns="http://www.w3.org/2000/svg">
  <!-- 黄油主体 -->
  <ellipse cx="32" cy="38" rx="22" ry="16" fill="#FFD700" stroke="#FFA500" stroke-width="2"/>
  
  <!-- 黄油顶部 -->
  <ellipse cx="32" cy="28" rx="20" ry="14" fill="#FFF8DC"/>
  
  <!-- 黄油纹理 -->
  <path d="M12 38 Q32 32 52 38" stroke="#FFA500" stroke-width="1.5" fill="none" opacity="0.6"/>
  <path d="M14 42 Q32 36 50 42" stroke="#FFA500" stroke-width="1.5" fill="none" opacity="0.4"/>
  <path d="M16 46 Q32 40 48 46" stroke="#FFA500" stroke-width="1.5" fill="none" opacity="0.3"/>
  
  <!-- 光泽效果 -->
  <ellipse cx="26" cy="24" rx="10" ry="6" fill="#FFFFFF" opacity="0.4"/>
  
  <!-- 包装纸 -->
  <path d="M10 28 Q32 22 54 28" stroke="#8B4513" stroke-width="2.5" fill="none"/>
  <path d="M10 28 L10 48 Q32 54 54 48 L54 28" stroke="#8B4513" stroke-width="2.5" fill="none"/>
  <path d="M10 48 Q32 52 54 48" stroke="#8B4513" stroke-width="2.5" fill="none"/>
  
  <!-- 包装纸纹理 -->
  <path d="M14 30 Q32 26 50 30" stroke="#8B4513" stroke-width="1" fill="none" opacity="0.6"/>
  <path d="M14 32 Q32 28 50 32" stroke="#8B4513" stroke-width="1" fill="none" opacity="0.6"/>
  <path d="M14 34 Q32 30 50 34" stroke="#8B4513" stroke-width="1" fill="none" opacity="0.6"/>
</svg>
